PathFileType	4	(X/Y/Z)	C:/Users/opensim2020/Desktop/walking_exp_matlab/subject06_walking22_straight_03.trc	
DataRate	CameraRate	NumFrames	NumMarkers	Units	OrigDataRate	OrigDataStartFrame	OrigNumFrames	
100.00	100.00	6	44	mm	100.00	1712	77	
Frame#	Time	LFHD			RFHD			LBHD			RBHD			C7			T10			CLAV			STRN			RBAK			LSHO			LUPA			LELB			LFRM			LWRA			LWRB			LFIN			RSHO			RUPA			RELB			RFRM			RWRA			RWRB			RFIN			LASI			RASI			LPSI			RPSI			LTHI			LKNE			LTIB			LANK			LHEE			LTOE			RTHI			RKNE			RTIB			RANK			RHEE			RTOE			*39			*40			*41			*42			*43			
		X1	Y1	Z1	X2	Y2	Z2	X3	Y3	Z3	X4	Y4	Z4	X5	Y5	Z5	X6	Y6	Z6	X7	Y7	Z7	X8	Y8	Z8	X9	Y9	Z9	X10	Y10	Z10	X11	Y11	Z11	X12	Y12	Z12	X13	Y13	Z13	X14	Y14	Z14	X15	Y15	Z15	X16	Y16	Z16	X17	Y17	Z17	X18	Y18	Z18	X19	Y19	Z19	X20	Y20	Z20	X21	Y21	Z21	X22	Y22	Z22	X23	Y23	Z23	X24	Y24	Z24	X25	Y25	Z25	X26	Y26	Z26	X27	Y27	Z27	X28	Y28	Z28	X29	Y29	Z29	X30	Y30	Z30	X31	Y31	Z31	X32	Y32	Z32	X33	Y33	Z33	X34	Y34	Z34	X35	Y35	Z35	X36	Y36	Z36	X37	Y37	Z37	X38	Y38	Z38	X39	Y39	Z39	X40	Y40	Z40	X41	Y41	Z41	X42	Y42	Z42	X43	Y43	Z43	X44	Y44	Z44	

29	0.280	1352.28687	-144.05156	1648.91663	1484.37695	-134.34586	1649.78992	1367.06702	-278.63074	1600.31445	1496.18677	-267.66580	1605.71387	1427.20874	-280.86417	1450.05286	1437.64526	-331.08154	1121.77661	1430.36011	-174.38789	1366.12695	1430.72351	-143.12560	1190.57373	1510.47839	-364.91516	1286.80347	1266.92627	-226.49733	1397.04456	1190.58643	-269.85352	1202.20825	1176.54871	-303.10437	1095.00793	1149.53979	-312.13541	945.57159	1187.45557	-278.29245	819.24420	1149.64258	-338.81296	829.02802	1148.59766	-318.51584	740.00726	1589.56641	-219.44662	1405.63464	1690.44763	-271.96799	1219.03503	1713.20398	-266.65820	1098.68030	1733.82727	-234.48192	984.42426	1701.16187	-152.34117	861.51184	1742.67456	-202.88618	850.67993	1743.84961	-149.22472	786.50903	1345.25293	-139.50250	963.32434	1563.68311	-170.26628	960.08942	1353.21069	-299.65677	989.20062	1519.67590	-317.87280	983.86737	1279.33374	-155.66830	652.92554	1311.53662	-119.72366	495.45755	1321.16150	-154.40854	239.54533	1365.78174	-165.62701	69.49829	1410.56274	-208.82430	56.57837	1372.36414	-24.40268	41.97093	1623.14648	-212.69331	622.38306	1616.74426	-192.78596	496.99466	1612.29675	-387.31302	336.34952	1569.04700	-543.07257	238.14766	1521.66223	-581.41211	255.50504	1576.10730	-500.41724	85.51878	1414.99097	-238.39420	1696.31238												 
30	0.290	1352.38599	-128.84624	1650.90833	1484.39722	-119.00036	1651.54553	1366.96643	-263.39392	1603.05920	1496.08801	-252.47591	1608.20056	1426.69128	-265.92957	1452.21814	1436.97644	-316.54175	1124.36072	1430.14600	-159.71503	1368.39465	1430.27295	-128.38617	1192.95190	1509.61438	-350.37946	1289.10278	1266.70093	-210.91153	1399.49243	1190.43701	-249.68065	1203.41895	1176.11243	-280.45428	1095.55090	1149.58569	-286.07022	945.90320	1188.82581	-250.73599	820.35638	1149.35034	-310.11670	828.86310	1149.02734	-288.16089	740.35626	1589.22668	-205.38618	1407.75464	1689.11108	-259.73898	1221.15967	1711.43762	-255.56787	1100.63708	1732.56543	-226.92526	985.28406	1701.21423	-148.73070	859.40027	1742.34045	-200.04706	850.50281	1744.23145	-148.55611	784.49945	1344.18494	-125.58278	965.27289	1562.83289	-154.86705	963.38422	1353.19543	-285.48291	991.48962	1519.63513	-302.56253	986.51788	1279.39026	-145.97749	653.56470	1311.51379	-113.85069	494.98810	1321.70850	-152.39026	239.49438	1365.89563	-165.64778	69.67080	1410.41077	-208.76596	56.78386	1372.30566	-24.58883	42.00788	1621.85925	-189.93643	625.85620	1615.04712	-166.42488	501.10760	1611.17517	-356.79324	335.35791	1568.33484	-510.11029	232.28694	1521.17102	-550.42664	247.18982	1576.10632	-457.06778	83.58396	1415.04004	-222.60928	1698.75220												 
31	0.300	1352.49524	-112.99367	1652.84497	1484.71716	-103.38576	1653.22925	1366.87219	-247.98842	1605.64685	1496.07861	-237.30544	1610.51575	1426.26392	-251.29689	1454.07324	1436.29260	-301.80017	1126.65601	1430.06262	-145.13190	1370.50745	1429.80566	-113.66297	1195.13464	1508.83008	-335.95389	1291.18079	1266.56323	-195.44397	1401.88513	1190.34851	-229.71709	1204.73572	1175.81299	-257.69489	1096.21716	1149.63684	-259.68146	946.48187	1190.40930	-223.24983	821.77234	1149.05481	-281.08350	828.83710	1149.38452	-257.17087	740.96997	1588.79395	-191.49434	1409.76953	1687.80542	-247.42598	1223.29944	1709.53918	-245.03699	1102.62671	1731.21191	-219.66801	986.36566	1701.25134	-145.49788	857.53894	1741.84619	-197.54628	850.45868	1744.61816	-148.30942	782.86633	1343.01453	-111.73559	966.89563	1561.83826	-139.58260	966.27771	1353.10413	-271.12775	993.53021	1519.56946	-287.27194	989.23431	1279.06348	-136.61772	653.85626	1311.31836	-107.92597	494.44348	1321.39478	-150.15637	239.59853	1366.04248	-165.66345	69.81044	1410.70056	-208.79120	56.88282	1372.27393	-24.70204	42.07163	1621.09302	-167.69240	629.34570	1613.44873	-140.56848	505.26520	1609.84424	-326.61887	334.14615	1567.34802	-476.18640	225.17247	1520.46643	-518.18634	237.12993	1575.49463	-412.25067	82.11282	1415.23303	-206.89188	1701.00500												 
32	0.310	1352.78992	-97.33751	1654.53418	1484.92651	-88.12584	1654.43115	1366.85632	-232.70596	1608.01526	1496.04236	-222.09831	1612.50513	1425.93848	-236.98112	1455.78442	1435.75635	-287.22818	1128.78662	1429.87878	-130.55299	1372.38025	1429.33447	-98.95299	1197.01746	1508.02893	-321.38303	1293.02124	1266.42871	-180.10297	1404.09241	1190.58875	-209.98105	1206.03687	1175.62805	-235.47633	1096.94934	1149.66528	-233.31349	947.16113	1191.17273	-194.49992	823.42133	1148.76770	-251.97595	829.21625	1149.98535	-225.65764	741.87708	1588.35229	-177.83421	1411.65833	1686.61243	-235.22408	1225.34766	1707.73193	-234.70998	1104.56775	1729.88416	-212.69197	987.50537	1701.24817	-142.57198	855.84961	1741.40112	-195.31976	850.90753	1744.84607	-148.36212	781.42456	1341.91370	-97.78758	968.08594	1561.08496	-124.33265	968.94733	1352.96277	-256.94113	995.34528	1519.47314	-271.85437	991.70154	1279.06409	-127.27222	653.90765	1311.13538	-102.13039	493.80984	1321.52258	-147.92253	239.52251	1366.21228	-165.54207	69.94116	1411.16162	-208.49800	56.67080	1372.23279	-24.79273	42.05078	1620.65601	-145.66107	632.76178	1611.94946	-115.01575	509.37134	1608.68958	-296.02112	332.54105	1566.23865	-441.05634	216.91115	1519.41321	-484.32947	225.64240	1576.16675	-366.07077	80.35390	1415.52380	-191.06474	1703.02808												 
33	0.320	1353.14905	-81.78613	1655.98999	1485.31860	-72.72711	1655.45728	1366.85400	-217.28271	1610.08813	1496.11462	-206.87170	1614.16711	1425.42566	-222.17902	1457.16858	1435.16138	-272.47076	1130.53320	1429.65173	-115.94772	1373.96570	1428.82446	-84.25437	1198.65503	1507.30029	-307.09940	1294.67273	1266.33289	-164.94733	1406.09656	1190.43970	-190.73207	1207.36914	1175.33716	-213.28151	1097.70447	1149.81555	-207.02899	948.04114	1192.45972	-165.82387	825.30701	1148.85425	-222.30553	829.66968	1150.52393	-193.85892	742.98370	1587.99219	-164.05905	1413.30078	1685.46484	-223.21127	1227.29419	1706.11572	-224.55551	1106.27258	1728.62231	-205.92644	988.55664	1701.39514	-139.60614	854.47046	1740.85059	-193.05817	851.17389	1744.96228	-148.59854	780.17883	1340.77002	-84.13815	968.84473	1560.14819	-108.96566	971.11292	1352.68518	-242.83682	996.81622	1519.36694	-256.84286	993.93103	1279.05481	-118.26329	653.76337	1310.97107	-96.61395	493.08331	1321.52991	-145.54189	239.37344	1366.42468	-165.43152	70.08792	1411.06812	-208.70168	57.19804	1372.30652	-24.70387	42.06973	1620.38159	-123.94225	636.21667	1610.45593	-89.90443	513.56616	1606.44055	-266.05579	329.99313	1564.93591	-404.91547	207.72081	1517.96252	-448.97830	213.30072	1575.65564	-321.31131	77.65008	1415.87964	-175.32111	1704.75732												 
34	0.330	1353.54529	-66.16174	1657.22449	1485.70496	-57.42302	1656.24231	1366.89246	-201.96051	1611.93750	1496.19043	-191.73227	1615.51819	1425.07751	-207.59647	1458.39539	1434.59668	-257.81033	1132.02527	1429.57104	-101.41013	1375.27295	1428.31128	-69.57231	1199.97058	1506.33374	-292.68298	1295.95984	1266.18713	-149.81503	1407.74878	1190.16016	-171.70842	1208.59082	1174.94263	-191.55522	1098.37537	1149.87549	-180.94582	948.83350	1193.62585	-136.85408	827.27692	1149.17090	-192.60236	830.16479	1151.14648	-161.72546	744.44116	1587.64502	-150.33560	1414.58447	1684.32019	-211.51884	1228.98792	1704.61438	-214.48370	1107.71948	1727.48938	-199.41118	989.47211	1701.22180	-137.32558	852.77283	1740.32031	-191.04634	851.59528	1744.92322	-149.02739	778.98816	1339.55383	-70.17016	969.38776	1559.21082	-93.65340	972.81598	1352.36914	-228.70346	997.89307	1519.19897	-241.39619	995.95093	1279.10266	-109.41521	653.47321	1310.75781	-91.33944	492.23996	1321.46118	-143.36095	239.26685	1366.68213	-165.22676	70.16911	1411.23193	-208.65941	57.40187	1372.34045	-24.68374	41.96783	1619.88770	-102.86663	639.56268	1609.03662	-65.37806	517.79382	1605.07434	-234.76984	327.22266	1563.44641	-367.82751	197.83765	1516.06592	-412.09412	200.32135	1575.94177	-275.91534	74.10754	1416.26892	-159.62581	1706.26660												 
